<svg width="80" height="80" viewBox="0 0 80 80" fill="none" xmlns="http://www.w3.org/2000/svg">
<path d="M40 0C17.9086 0 0 17.9086 0 40C0 62.0914 17.9086 80 40 80C62.0914 80 80 62.0914 80 40C80 17.9086 62.0914 0 40 0ZM40 75C20.7011 75 5 59.2991 5 40C5 20.7011 20.7011 5 40 5C59.2989 5 75 20.7011 75 40C75 59.2991 59.2989 75 40 75Z" fill="#D04A02"/>
<path d="M15.6053 42.2719L33.3007 49.9648V44.9844L20.957 40.0894L33.3007 35.3702V30.353L15.6053 38.0116V42.2719Z" fill="#D04A02"/>
<path d="M34.9365 53.3457H38.5816L45.044 26.6538H41.3282L34.9365 53.3457Z" fill="#D04A02"/>
<path d="M46.6821 35.3355L59.0429 40.1402L46.6821 45.0011V49.9839L64.3944 42.2715V38.0455L46.6821 30.3867V35.3355Z" fill="#D04A02"/>
</svg>
