<svg width="64" height="80" viewBox="0 0 64 80" fill="none" xmlns="http://www.w3.org/2000/svg">
<path d="M44.2688 24.5874H43.5747C43.1945 22.4904 42.3251 20.5233 41.0245 18.8191L41.4483 18.3953C42.2865 17.5574 42.2865 16.1991 41.4486 15.3612C40.6104 14.5233 39.2522 14.5233 38.4145 15.3612L37.9237 15.852C36.1721 14.6382 34.1664 13.8618 32.0417 13.5765V12.9769C32.0417 11.792 31.0813 10.8315 29.8963 10.8315C28.7114 10.8315 27.7509 11.792 27.7509 12.9769V13.6713C25.6515 14.0515 23.6861 14.9202 21.9824 16.221L21.5588 15.7974C20.7209 14.9595 19.3627 14.9595 18.5248 15.7974C17.6866 16.6353 17.6866 17.9936 18.5245 18.8315L19.0153 19.3223C17.8015 21.0739 17.0254 23.0796 16.7398 25.2043H16.1405C14.9555 25.2043 13.9951 26.1647 13.9951 27.3497C13.9951 28.5347 14.9555 29.4951 16.1405 29.4951H16.8344C17.2146 31.5921 18.084 33.5592 19.3846 35.2636L18.9608 35.6874C18.1226 36.5253 18.1226 37.8836 18.9605 38.7215C19.3796 39.1406 19.9286 39.3499 20.4776 39.3499C21.0265 39.3499 21.5755 39.1403 21.9944 38.7215L22.4852 38.2307C24.237 39.4445 26.2427 40.2209 28.3674 40.5065V41.106C28.3674 42.291 29.3278 43.2514 30.5128 43.2514C31.6977 43.2514 32.6582 42.291 32.6582 41.106V40.4106C34.7549 40.0302 36.7225 39.1625 38.4264 37.8621L38.85 38.2857C39.2691 38.7048 39.8181 38.9141 40.3671 38.9141C40.916 38.9141 41.465 38.7046 41.8839 38.2857C42.722 37.4478 42.722 36.0896 41.8841 35.2517L41.3933 34.7608C42.6071 33.009 43.3833 31.0033 43.6688 28.8789H44.2684C45.4533 28.8789 46.4137 27.9185 46.4137 26.7335C46.4137 25.5485 45.4538 24.5874 44.2688 24.5874ZM36.7189 33.6791C34.9459 35.419 32.594 36.3627 30.1171 36.3413C27.6327 36.3179 25.3064 35.3287 23.5665 33.5554C21.8263 31.7823 20.8809 29.4376 20.9045 26.9535C20.9279 24.4694 21.9171 22.1428 23.6902 20.4029C25.442 18.6837 27.7512 17.7404 30.2022 17.7404C30.232 17.7404 30.2622 17.7404 30.292 17.7407C32.7764 17.764 35.1027 18.7533 36.8427 20.5266C38.5828 22.2997 39.5282 24.6441 39.5046 27.1285C39.4813 29.6126 38.492 31.9392 36.7189 33.6791Z" fill="#D04A02"/>
<path d="M30.2632 20.8065C28.5917 20.788 27.0258 21.4247 25.8372 22.5913C24.6487 23.7579 23.9852 25.3176 23.9695 26.9827C23.954 28.6482 24.5876 30.2201 25.7543 31.4089C26.9209 32.5977 28.4803 33.2608 30.1456 33.2763C30.1659 33.2766 30.1859 33.2766 30.2062 33.2766C31.8491 33.2766 33.3976 32.6439 34.5716 31.4916C35.7602 30.3252 36.4236 28.7655 36.4393 27.1002C36.4548 25.4346 35.8212 23.8628 34.6546 22.674C33.4879 21.4854 31.9285 20.8223 30.2632 20.8065ZM31.5664 28.4294C31.1955 28.7932 30.708 28.9855 30.1859 28.9858C29.6667 28.9808 29.1805 28.7741 28.8167 28.4034C28.4529 28.0327 28.2553 27.5426 28.2603 27.0232C28.2653 26.5038 28.472 26.0175 28.8424 25.6537C29.2086 25.2945 29.6915 25.0971 30.204 25.0971C30.2102 25.0971 30.2167 25.0971 30.2229 25.0971C30.7421 25.1021 31.2284 25.3088 31.5921 25.6795C31.9561 26.0501 32.1537 26.5402 32.1485 27.0599C32.1435 27.5793 31.9368 28.0656 31.5664 28.4294Z" fill="#D04A02"/>
<path d="M62.8342 41.4992L58.0826 34.9164C57.0001 33.417 56.6917 31.4704 57.2576 29.7097C58.4354 26.0449 58.6116 22.2073 57.7668 18.612C56.547 13.4207 53.5756 8.70627 49.3999 5.33751C45.0717 1.84576 39.8348 0 34.2556 0H26.9619C12.095 0 0 12.095 0 26.9619V27.0556C0 32.0673 1.52943 36.9581 4.42286 41.1993C6.80425 44.6898 9.64309 50.7494 9.64309 59.7932C9.64309 60.4297 9.92581 61.0335 10.4145 61.4411L32.0766 79.5025C32.4699 79.8303 32.9579 80 33.4511 80C33.7595 80 34.0701 79.9335 34.3602 79.7976C35.1142 79.4446 35.596 78.6873 35.596 77.8546C35.596 76.3164 36.1848 74.3238 37.2989 72.0921C38.8012 69.0833 42.1876 67.4139 45.5356 68.0323L47.8653 68.4628C47.8781 68.4651 47.8913 68.4668 47.9041 68.469C50.3694 68.9133 52.8855 68.2511 54.8121 66.6475C56.7489 65.0359 57.8595 62.6664 57.8595 60.147V58.0373C57.8595 57.7961 57.8187 57.5563 57.7391 57.3286L56.9365 55.035L58.0252 52.979C58.1892 52.6695 58.2747 52.3248 58.2747 51.9749V47.8417H59.5901C61.0998 47.8417 62.4647 47.0069 63.152 45.6627C63.8397 44.3185 63.7176 42.7232 62.8342 41.4992ZM56.1296 43.5506C54.9446 43.5506 53.9842 44.5111 53.9842 45.696V51.4417L52.7062 53.8547C52.4264 54.3828 52.3797 55.0035 52.577 55.5675L53.5689 58.4018V60.1467C53.5689 61.388 53.0219 62.5553 52.0676 63.3491C51.152 64.1109 49.967 64.4363 48.7938 64.2623L32.559 58.0974C31.4511 57.6767 30.2122 58.234 29.7917 59.3415C29.371 60.449 29.9281 61.6881 31.0358 62.1086L38.5952 64.9791C36.4239 66.1095 34.5979 67.8964 33.4604 70.1753C33.4601 70.1753 33.4601 70.1753 33.4601 70.1753C32.8236 71.4503 32.3269 72.6699 31.9717 73.8275L13.9234 58.7794C13.7162 49.194 10.598 42.636 7.96777 38.7807C5.56254 35.2551 4.29127 31.2005 4.29127 27.0551V26.9615C4.2908 14.4612 14.4612 4.2908 26.9622 4.2908H34.2558C43.5225 4.2908 51.4731 10.5835 53.5897 19.5934C54.2564 22.4299 54.112 25.474 53.1727 28.3967C52.1913 31.4508 52.7263 34.8267 54.6035 37.4274L59.0233 43.5506H56.1296Z" fill="#D04A02"/>
</svg>
