<svg width="76" height="76" viewBox="0 0 76 76" fill="none" xmlns="http://www.w3.org/2000/svg">
<path d="M65.1489 44.2067C66.5379 44.3775 67.8755 44.8378 69.0756 45.5578H69.1811C70.4278 39.6643 69.9813 33.5383 67.8933 27.8878C67.8151 27.6066 67.6795 27.3447 67.495 27.1186C67.3104 26.8925 67.081 26.7071 66.8212 26.5741C66.5614 26.4411 66.2769 26.3635 65.9855 26.3461C65.6942 26.3286 65.4024 26.3718 65.1286 26.4728C64.8548 26.5738 64.6049 26.7305 64.3947 26.933C64.1845 27.1355 64.0186 27.3794 63.9074 27.6492C63.7963 27.9191 63.7423 28.2091 63.7488 28.5008C63.7554 28.7926 63.8224 29.0799 63.9456 29.3444C65.6903 34.097 66.1063 39.2353 65.1489 44.2067Z" fill="#D04A02"/>
<path d="M55.5855 60.3354C51.9069 63.4043 47.4889 65.4568 42.7711 66.2888C42.2112 66.3364 41.6931 66.6044 41.3309 67.034C40.9686 67.4636 40.7918 68.0194 40.8394 68.5793C40.887 69.1392 41.1551 69.6573 41.5846 70.0196C42.0142 70.3818 42.5701 70.5586 43.13 70.511H43.51C49.1331 69.5191 54.3885 67.0408 58.7311 63.3332V63.1854C57.4893 62.4735 56.4162 61.5012 55.5855 60.3354Z" fill="#D04A02"/>
<path d="M32.9755 66.1621C29.7824 65.5629 26.7178 64.4128 23.9188 62.7633C22.7219 62.058 21.5724 61.2752 20.4777 60.4199C19.6728 61.6023 18.6213 62.5962 17.3955 63.3333C18.7664 64.4898 20.2277 65.5346 21.7655 66.4577C24.9899 68.357 28.518 69.6854 32.1944 70.3844H32.5955C33.1554 70.4348 33.7124 70.2607 34.1439 69.9004C34.5755 69.5401 34.8462 69.0232 34.8966 68.4633C34.947 67.9033 34.7729 67.3464 34.4126 66.9148C34.0524 66.4833 33.5354 66.2125 32.9755 66.1621Z" fill="#D04A02"/>
<path d="M9.62659 44.65C10.0488 44.65 10.471 44.5867 10.8933 44.46C9.88689 39.4821 10.2815 34.3226 12.0333 29.5556C12.2264 29.0293 12.2026 28.4478 11.967 27.9391C11.7315 27.4303 11.3034 27.036 10.7771 26.8428C10.2508 26.6496 9.66935 26.6735 9.1606 26.909C8.65186 27.1446 8.25753 27.5726 8.06436 28.0989C5.9733 33.7953 5.56294 39.9726 6.88214 45.8956C7.7293 45.3451 8.65447 44.9252 9.62659 44.65Z" fill="#D04A02"/>
<path d="M67.3444 48.5555C66.5905 48.0758 65.7489 47.7504 64.8683 47.5982C63.9877 47.446 63.0857 47.47 62.2144 47.6688C61.1119 47.9628 60.0976 48.5207 59.2589 49.2944L51.0889 44.5655C52.3756 41.3866 52.4942 37.8545 51.4237 34.5964C50.3531 31.3383 48.1626 28.565 45.2411 26.7688L45.0089 26.6211C43.4306 25.7305 41.6964 25.15 39.9 24.9111V16.8888C41.5813 16.3836 43.0029 15.2493 43.8689 13.7222C44.8015 12.1434 45.0741 10.2606 44.6275 8.48217C44.1809 6.70373 43.0512 5.17307 41.4833 4.22218C40.7195 3.77532 39.8742 3.4854 38.997 3.3694C38.1197 3.2534 37.2281 3.31365 36.3744 3.54662C35.4943 3.77101 34.6676 4.16845 33.9426 4.71577C33.2177 5.26309 32.6091 5.94932 32.1522 6.7344C31.2459 8.30555 30.9881 10.1682 31.4336 11.9265C31.8791 13.6847 32.9927 15.1999 34.5378 16.15C35.0223 16.4665 35.5479 16.7151 36.1 16.8888V24.9111C33.9734 25.2013 31.942 25.9768 30.1629 27.1775C28.3839 28.3782 26.9048 29.9719 25.84 31.8355C24.7383 33.7402 24.0857 35.8713 23.9321 38.0663C23.7784 40.2614 24.1277 42.4625 24.9533 44.5022L16.5089 49.3366C16.2127 49.0523 15.8951 48.7911 15.5589 48.5555C14.7858 48.1157 13.9335 47.8329 13.0509 47.7233C12.1683 47.6136 11.2727 47.6794 10.4156 47.9167C9.55843 48.1541 8.75658 48.5583 8.05604 49.1063C7.35551 49.6543 6.77007 50.3352 6.33332 51.11C5.42137 52.6735 5.15378 54.5307 5.58723 56.2881C6.02068 58.0456 7.12113 59.5653 8.65555 60.5255C9.70726 61.1588 10.9112 61.4944 12.1389 61.4966C12.6948 61.5006 13.2486 61.4296 13.7855 61.2855C15.5407 60.8328 17.0454 59.7039 17.971 58.1454C18.8966 56.587 19.1678 54.7256 18.7255 52.9677V52.6089L26.9167 47.88C28.0145 49.3173 29.3669 50.5409 30.9067 51.49C33.8581 53.3509 37.4083 54.0157 40.8331 53.3488C44.2579 52.6819 47.2992 50.7335 49.3367 47.9011L57.4222 52.5666C57.0411 54.0064 57.1329 55.5306 57.6841 56.9142C58.2353 58.2979 59.2166 59.4677 60.4833 60.2511C62.0177 61.1514 63.8467 61.4058 65.5686 60.9585C67.2905 60.5112 68.7644 59.3988 69.6667 57.8655C70.5464 56.3117 70.796 54.4795 70.3638 52.747C69.9317 51.0145 68.8509 49.5141 67.3444 48.5555Z" fill="#D04A02"/>
<path d="M16.9944 21.1111C20.0189 17.5384 23.9069 14.7986 28.2889 13.1522C27.8647 11.7367 27.7424 10.248 27.93 8.78223C22.4405 10.6176 17.552 13.9082 13.7856 18.3033C13.4132 18.7289 13.2252 19.2849 13.2628 19.849C13.3004 20.4132 13.5606 20.9393 13.9861 21.3117C14.4116 21.684 14.9676 21.8721 15.5318 21.8344C16.096 21.7968 16.6221 21.5366 16.9944 21.1111Z" fill="#D04A02"/>
<path d="M52.0812 15.2632C54.68 16.8225 57.005 18.7981 58.9634 21.111C59.1436 21.3217 59.3635 21.4948 59.6107 21.6205C59.8578 21.7462 60.1272 21.822 60.4036 21.8436C60.6801 21.8652 60.958 21.8321 61.2216 21.7462C61.4852 21.6604 61.7294 21.5234 61.9401 21.3432C62.1508 21.163 62.3239 20.9431 62.4496 20.696C62.5753 20.4488 62.6511 20.1794 62.6727 19.903C62.6942 19.6266 62.6611 19.3486 62.5753 19.085C62.4894 18.8214 62.3525 18.5773 62.1723 18.3666C59.9177 15.6917 57.2354 13.4089 54.2345 11.611C52.2664 10.4666 50.1868 9.52584 48.0278 8.80322C48.2398 10.2586 48.1317 11.7428 47.7112 13.1521C49.2229 13.7357 50.6844 14.4417 52.0812 15.2632Z" fill="#D04A02"/>
</svg>
