<svg width="63" height="66" viewBox="0 0 63 66" fill="none" xmlns="http://www.w3.org/2000/svg">
<path d="M29.698 13.8475L21.9012 6.1907L21.9012 6.19065C19.7485 4.07602 16.9159 3.01768 14.081 3.01768C11.2442 3.01768 8.41359 4.07585 6.25649 6.19071C4.17424 8.23968 3.02919 10.9598 3.02919 13.8495C3.02919 16.7413 4.17416 19.4572 6.2586 21.5062C10.5687 25.7383 17.5908 25.7385 21.9033 21.5064L29.698 13.8475ZM29.698 13.8475L21.9035 21.5062L29.698 13.8475ZM53.5023 65.5H54.0023V65V51.0857C56.5944 49.8793 58.2501 47.6981 58.2501 45.1824V36.7115C58.2501 31.7805 54.4306 27.8986 49.5519 27.8986C44.672 27.8986 40.8537 31.7923 40.8537 36.7325V45.1993C40.8537 47.7078 42.5104 49.8804 45.1015 51.0838V65V65.5H45.6015H47.1307H47.6307V65V50.2422C47.6307 49.711 47.2948 49.2376 46.795 49.0572L46.7941 49.0569C45.0462 48.4297 43.3829 47.0737 43.3829 45.1993V36.7325C43.3829 33.1761 46.0982 30.4165 49.5519 30.4165C53.0071 30.4165 55.7209 33.1691 55.7209 36.7115V45.1803C55.7209 47.0687 54.0556 48.4304 52.3098 49.0569L52.3078 49.0576C51.8126 49.2376 51.4732 49.7093 51.4732 50.2422V65V65.5H51.9732H53.5023ZM51.9732 50.2422C51.9732 49.9239 52.177 49.6372 52.4786 49.5275L45.6015 50.7587C42.9679 49.6435 41.3537 47.5521 41.3537 45.1993V36.7325C41.3537 32.0606 44.9558 28.3986 49.5519 28.3986C54.148 28.3986 57.7501 32.0501 57.7501 36.7115V45.1824C57.7501 47.5437 56.136 49.6435 53.5023 50.7609V64.5V65H53.0023H52.4732H51.9732V64.5V50.2422ZM17.3964 65.5H17.8964V65V51.0856C20.4902 49.8776 22.1441 47.6983 22.1441 45.1824V36.7115C22.1441 31.7806 18.3269 27.8986 13.4459 27.8986C8.5638 27.8986 4.74776 31.7924 4.74776 36.7325V45.1993C4.74776 47.7077 6.40236 49.8804 8.99553 51.0839V65V65.5H9.49553H11.0247H11.5247V65V50.2422C11.5247 49.7116 11.1895 49.2384 10.6922 49.0576L10.6902 49.0569C8.94219 48.4296 7.27696 47.0714 7.27696 45.1993V36.7325C7.27696 33.1761 9.99217 30.4165 13.4459 30.4165C16.9011 30.4165 19.6149 33.1691 19.6149 36.7115V45.1803C19.6149 47.0685 17.9478 48.4303 16.2017 49.0569L16.1997 49.0576C15.7024 49.2384 15.3672 49.7116 15.3672 50.2422V65V65.5H15.8672H17.3964ZM15.8672 50.2422C15.8672 49.9239 16.0689 49.6372 16.3705 49.5275L9.49553 50.7587C6.85979 49.6435 5.24776 47.5521 5.24776 45.1993V36.7325C5.24776 32.0606 8.84774 28.3986 13.4459 28.3986C18.0441 28.3986 21.6441 32.0501 21.6441 36.7115V45.1824C21.6441 47.5437 20.0321 49.6414 17.3964 50.7609V64.5V65H16.8964H16.3672H15.8672V64.5V50.2422ZM39.3191 23.2991L39.3194 23.2994C41.9685 25.8983 45.4457 27.1972 48.9169 27.1972C52.3903 27.1972 55.8654 25.8983 58.5146 23.2971L58.5147 23.297C61.0814 20.7754 62.5 17.4197 62.5 13.8495C62.5 10.2799 61.0838 6.91972 58.5147 4.39784C53.225 -0.798214 44.6153 -0.800322 39.3213 4.39777L39.3213 4.3978L31.4989 12.0799L23.6765 4.39988C18.3847 -0.796133 9.77513 -0.796029 4.48125 4.3998L4.48093 4.40012C1.9162 6.92189 0.5 10.2798 0.5 13.8517C0.5 17.4216 1.91632 20.7774 4.4832 23.2991L4.48337 23.2993C9.77516 28.493 18.3825 28.4951 23.6785 23.2994L23.6787 23.2991L31.4989 15.6172L39.3191 23.2991ZM41.0943 21.5061L33.2998 13.8475L41.0944 6.19082C45.4089 1.95647 52.4269 1.95858 56.7372 6.19073C58.8235 8.23958 59.9686 10.9574 59.9687 13.8492C59.9666 16.7412 58.8215 19.4573 56.7371 21.5063C52.429 25.7383 45.4111 25.7406 41.0943 21.5061ZM44.0396 14.364C44.0396 17.3863 46.5138 19.8394 49.5519 19.8394C52.59 19.8394 55.0643 17.3863 55.0643 14.364C55.0643 11.3415 52.5878 8.88848 49.5519 8.88848C46.5161 8.88848 44.0396 11.3415 44.0396 14.364ZM46.5688 14.364C46.5688 12.7377 47.9046 11.4064 49.5519 11.4064C51.1993 11.4064 52.5351 12.7377 52.5351 14.364C52.5351 15.9904 51.2012 17.3215 49.5519 17.3215C47.9027 17.3215 46.5688 15.9904 46.5688 14.364ZM7.93358 14.364C7.93358 17.3864 10.4101 19.8394 13.4459 19.8394C16.4818 19.8394 18.9583 17.3864 18.9583 14.364C18.9583 11.3415 16.4818 8.88848 13.4459 8.88848C10.4101 8.88848 7.93358 11.3415 7.93358 14.364ZM10.4628 14.364C10.4628 12.7377 11.7986 11.4064 13.4459 11.4064C15.0933 11.4064 16.4291 12.7377 16.4291 14.364C16.4291 15.9902 15.0933 17.3215 13.4459 17.3215C11.7986 17.3215 10.4628 15.9902 10.4628 14.364Z" fill="#D04A02" stroke="#D04A02"/>
</svg>
